<svg width="20" height="17" viewBox="0 0 20 17" fill="none" xmlns="http://www.w3.org/2000/svg">
<path d="M10 3.5625C10 2.83315 10.2897 2.13368 10.8055 1.61796C11.3212 1.10223 12.0207 0.8125 12.75 0.8125H18.25C18.4323 0.8125 18.6072 0.884933 18.7361 1.01386C18.8651 1.1428 18.9375 1.31766 18.9375 1.5V12.5C18.9375 12.6823 18.8651 12.8572 18.7361 12.9861C18.6072 13.1151 18.4323 13.1875 18.25 13.1875H12.75C12.0207 13.1875 11.3212 13.4772 10.8055 13.993C10.2897 14.5087 10 15.2082 10 15.9375" stroke="white" stroke-width="1.5" stroke-linecap="round" stroke-linejoin="round"/>
<path d="M1.0625 12.5C1.0625 12.6823 1.13493 12.8572 1.26386 12.9861C1.3928 13.1151 1.56766 13.1875 1.75 13.1875H7.25C7.97935 13.1875 8.67882 13.4772 9.19454 13.993C9.71027 14.5087 10 15.2082 10 15.9375V3.5625C10 2.83315 9.71027 2.13368 9.19454 1.61796C8.67882 1.10223 7.97935 0.8125 7.25 0.8125H1.75C1.56766 0.8125 1.3928 0.884933 1.26386 1.01386C1.13493 1.1428 1.0625 1.31766 1.0625 1.5V12.5Z" stroke="white" stroke-width="1.5" stroke-linecap="round" stroke-linejoin="round"/>
<path d="M12.75 4.25H16.1875" stroke="white" stroke-width="1.5" stroke-linecap="round" stroke-linejoin="round"/>
<path d="M12.75 7H16.1875" stroke="white" stroke-width="1.5" stroke-linecap="round" stroke-linejoin="round"/>
<path d="M12.75 9.75H16.1875" stroke="white" stroke-width="1.5" stroke-linecap="round" stroke-linejoin="round"/>
</svg>
