<svg width="18" height="18" viewBox="0 0 18 18" fill="none" xmlns="http://www.w3.org/2000/svg">
<path d="M9 17.25C13.5563 17.25 17.25 13.5563 17.25 9C17.25 4.44365 13.5563 0.75 9 0.75C4.44365 0.75 0.75 4.44365 0.75 9C0.75 13.5563 4.44365 17.25 9 17.25Z" stroke="#000905" stroke-width="1.5" stroke-linecap="round" stroke-linejoin="round"/>
<path d="M5.5625 9.00011C5.5625 12.2193 6.70805 15.0948 8.50844 17.0344C8.57098 17.1024 8.64696 17.1567 8.73158 17.1939C8.81619 17.231 8.90759 17.2502 9 17.2502C9.09241 17.2502 9.18381 17.231 9.26842 17.1939C9.35304 17.1567 9.42902 17.1024 9.49156 17.0344C11.292 15.0948 12.4375 12.2193 12.4375 9.00011C12.4375 5.78089 11.292 2.90542 9.49156 0.96581C9.42902 0.897782 9.35304 0.843476 9.26842 0.806328C9.18381 0.769181 9.09241 0.75 9 0.75C8.90759 0.75 8.81619 0.769181 8.73158 0.806328C8.64696 0.843476 8.57098 0.897782 8.50844 0.96581C6.70805 2.90542 5.5625 5.78089 5.5625 9.00011Z" stroke="#000905" stroke-width="1.5" stroke-linecap="round" stroke-linejoin="round"/>
<path d="M1.21924 6.25H16.7808" stroke="#000905" stroke-width="1.5" stroke-linecap="round" stroke-linejoin="round"/>
<path d="M1.21924 11.75H16.7808" stroke="#000905" stroke-width="1.5" stroke-linecap="round" stroke-linejoin="round"/>
</svg>
