<svg width="21" height="22" viewBox="0 0 21 22" fill="none" xmlns="http://www.w3.org/2000/svg">
<path d="M5.35351 21.5864H5.23121C4.38984 21.5864 3.70536 20.9015 3.70536 20.0597C3.70536 19.6764 3.85712 19.3218 4.10986 19.0501H3.05891C2.63932 19.0501 2.23361 18.8756 1.94583 18.5714C1.65558 18.2645 1.50865 17.8635 1.53209 17.4421C1.56511 16.8813 1.90764 16.4051 2.39353 16.1645L2.16939 16.137C1.75181 16.0901 1.38099 15.8819 1.12499 15.5506C0.869458 15.2199 0.762193 14.8082 0.822916 14.3914L0.824345 14.3823C0.947615 13.6449 1.60622 13.1097 2.39039 13.1097H2.52995L3.11979 13.1833C3.04871 13.1174 2.98353 13.0455 2.925 12.9682C2.67604 12.6393 2.57284 12.2423 2.63444 11.8503L2.63515 11.846C2.75956 11.1019 3.39456 10.5619 4.14508 10.5619C4.24263 10.5619 4.32408 10.5733 4.39595 10.5834L4.44692 10.5904L8.59944 11.4802L6.02252 8.64276C5.98468 8.60341 5.95984 8.56575 5.94428 8.54073L5.93335 8.52624C5.43244 7.86233 5.56653 6.90717 6.23199 6.39633C6.53647 6.16016 6.91004 6.0651 7.27912 6.10307L6.64789 5.26506C6.3924 4.92517 6.29023 4.50959 6.35995 4.09451C6.42927 3.68169 6.65991 3.32406 7.0095 3.08713C7.34103 2.85681 7.74692 2.77624 8.1529 2.86024C8.29414 2.88952 8.43082 2.9376 8.55929 3.00319L8.44189 2.79928C8.22888 2.43965 8.17088 2.00419 8.28281 1.60401C8.39566 1.20057 8.66258 0.86958 9.03443 0.672021L9.03718 0.67057C9.75616 0.295109 10.6782 0.574737 11.0925 1.29396L11.3731 1.7828C11.4239 1.27771 11.7 0.827192 12.1489 0.592106C12.5226 0.394042 12.9485 0.359481 13.3483 0.49491C13.7445 0.629129 14.072 0.924674 14.247 1.30592L16.4282 5.99622L17.4109 7.90217L17.2928 5.71503C17.2704 5.29327 17.4159 4.89206 17.7023 4.58484C17.9888 4.27753 18.3788 4.10429 18.8005 4.09701L18.8081 4.09695C19.2081 4.09695 19.588 4.25764 19.8776 4.54938C20.1566 4.83026 20.3228 5.20375 20.3448 5.59904L20.5147 8.60919C20.5509 9.19028 20.5065 9.78882 20.3826 10.3882L20.3814 10.3935L19.8372 12.8712C19.7202 13.4319 19.37 13.8877 18.8508 14.1549L17.4619 14.8628L16.6814 19.3382C16.5538 20.0062 16.0141 20.5081 15.3382 20.5872L15.3336 20.5877L9.35975 21.2222L5.35351 21.5864ZM1.69247 14.5228C1.66787 14.6999 1.71338 14.8738 1.82084 15.0128C1.93024 15.1544 2.08932 15.2433 2.26879 15.2632L2.27398 15.2638L8.1735 15.9885L8.12091 16.8646L3.11605 16.8761C2.74633 16.8761 2.43005 17.1526 2.41004 17.4923C2.40024 17.6685 2.46223 17.8376 2.58467 17.967C2.70891 18.0984 2.87731 18.1707 3.05889 18.1707H8.12977L8.18354 19.0468L5.24038 19.4091C4.87209 19.4531 4.58478 19.7388 4.58478 20.0597C4.58478 20.4166 4.87477 20.7069 5.23123 20.7069H5.31366L9.27691 20.3467L15.2382 19.7135C15.5288 19.6786 15.7609 19.4632 15.8171 19.1764L16.6325 14.4997C16.6864 14.2075 16.6006 13.8958 16.403 13.6659L14.749 11.7412C14.4067 11.3442 14.0187 11.0015 13.5961 10.7234L11.0804 9.04674C10.9505 8.96031 10.8075 8.9165 10.6554 8.9165C10.4514 8.9165 10.2634 9.00866 10.1527 9.16306L10.1469 9.171C10.041 9.31181 9.99859 9.4842 10.0274 9.65636C10.0572 9.8346 10.1584 9.9901 10.3124 10.0942L12.4175 11.5081C12.6535 11.6656 12.7813 11.9191 12.7721 12.189L12.5536 12.7245C12.4057 12.8852 12.1969 12.9813 11.9693 12.9813C11.9158 12.9813 11.872 12.9729 11.8438 12.9663L9.35166 12.5407L4.29484 11.4572L4.27378 11.4542C4.22007 11.4467 4.18127 11.4412 4.14508 11.4412C3.82672 11.4412 3.55696 11.6714 3.50288 11.9889C3.44772 12.3491 3.75537 12.6527 4.0855 12.7383L4.08884 12.7392L8.06368 13.8039L7.89552 14.665L2.47536 13.9891H2.39043C2.03939 13.9891 1.74666 14.2133 1.69247 14.5228ZM17.3402 12.8546C17.5592 13.1065 17.715 13.3927 17.8036 13.7016L18.45 13.3722C18.7276 13.2294 18.9152 12.9868 18.9767 12.6901L18.9778 12.6851L19.5219 10.2076C19.6297 9.68523 19.6684 9.16548 19.6369 8.66277L19.6368 8.66011L19.4668 5.64844C19.4461 5.27911 19.1527 4.97855 18.8118 4.9764C18.6324 4.98051 18.4669 5.05431 18.3455 5.18453C18.2233 5.31558 18.1613 5.48731 18.1709 5.66809L18.3079 8.2039C18.329 8.58211 18.0857 8.91714 17.7163 9.01789C17.3451 9.11909 16.9628 8.95143 16.7865 8.61016L15.6384 6.38338L13.448 1.67333C13.3725 1.50838 13.2368 1.38568 13.0661 1.32784C12.8977 1.27081 12.7181 1.28556 12.5602 1.36941L12.5575 1.37086C12.2396 1.53683 12.1821 1.96853 12.3101 2.29001L13.8495 6.10452L13.0604 6.48798L10.3301 1.73238C10.1518 1.42272 9.74697 1.29314 9.44575 1.44933C9.28915 1.53294 9.17694 1.67195 9.12969 1.8409C9.08126 2.01404 9.10597 2.1957 9.19928 2.35239L9.20251 2.35793L12.1688 7.50972L11.5792 7.90006C11.642 7.9333 11.7029 7.97007 11.7615 8.01018L14.2721 9.6842C14.7858 10.022 15.2616 10.4405 15.6864 10.9282L15.6885 10.9306L17.3402 12.8546ZM9.67655 11.3441L10.0265 11.4035L9.6137 11.126C9.18967 10.8341 8.89591 10.3791 8.80768 9.87773C8.73253 9.43796 8.8075 8.99936 9.01889 8.61889L7.67514 7.22751C7.45019 6.9899 7.05026 6.87413 6.77045 7.0916L6.76799 7.09349C6.48779 7.30816 6.4259 7.70453 6.62612 7.98402C6.64607 8.00772 6.66425 8.03285 6.68051 8.05921L9.35841 11.0079L9.67655 11.3441ZM7.84185 3.709C7.72357 3.709 7.60817 3.74167 7.51001 3.81022L7.50416 3.81424C7.35477 3.91502 7.25641 4.06628 7.22722 4.24018C7.19782 4.41518 7.24164 4.59141 7.3506 4.73634L9.7464 7.91688C10.0229 7.75796 10.3364 7.67448 10.6553 7.67482C10.8667 7.67482 11.0724 7.70672 11.2665 7.76868L8.42446 4.00866C8.27727 3.81508 8.05493 3.709 7.84185 3.709Z" fill="#000905" stroke="#000905" stroke-width="0.4"/>
</svg>
