<svg width="16" height="16" viewBox="0 0 16 16" fill="none" xmlns="http://www.w3.org/2000/svg">
<path d="M11.75 0.5H4.25C2.17893 0.5 0.5 2.17893 0.5 4.25V11.75C0.5 13.8211 2.17893 15.5 4.25 15.5H11.75C13.8211 15.5 15.5 13.8211 15.5 11.75V4.25C15.5 2.17893 13.8211 0.5 11.75 0.5Z" fill="#05633B"/>
<path d="M11.0001 7.52748C11.0927 8.15167 10.9861 8.78914 10.6955 9.34924C10.4048 9.90934 9.94501 10.3635 9.38137 10.6472C8.81773 10.9309 8.17898 11.0297 7.55599 10.9294C6.93299 10.8292 6.35747 10.535 5.91128 10.0889C5.46508 9.64266 5.17095 9.06714 5.0707 8.44414C4.97045 7.82115 5.0692 7.1824 5.35289 6.61876C5.63659 6.05512 6.09079 5.59529 6.65089 5.30466C7.21098 5.01404 7.84846 4.90742 8.47265 4.99998C9.10934 5.0944 9.69878 5.39108 10.1539 5.84621C10.609 6.30134 10.9057 6.89079 11.0001 7.52748Z" fill="#F7F7F7"/>
<path d="M12.125 3.875H12.1321" stroke="#F7F7F7" stroke-width="1.5" stroke-linecap="round" stroke-linejoin="round"/>
</svg>
