<svg width="14" height="14" viewBox="0 0 14 14" fill="none" xmlns="http://www.w3.org/2000/svg">
<path d="M9 1.5C9.84094 1.72145 10.608 2.16214 11.223 2.77705C11.8379 3.39196 12.2785 4.15906 12.5 5" stroke="#4C5250" stroke-width="1.5" stroke-linecap="round" stroke-linejoin="round"/>
<path d="M8.5 3.5C9.5325 3.77625 10.2237 4.4675 10.5 5.5" stroke="#4C5250" stroke-width="1.5" stroke-linecap="round" stroke-linejoin="round"/>
<path d="M9.27438 8.08374C9.34362 8.03766 9.42327 8.00958 9.5061 8.00205C9.58893 7.99452 9.67233 8.00778 9.74875 8.04061L12.6963 9.36124C12.7956 9.40369 12.8785 9.47717 12.9326 9.57069C12.9867 9.6642 13.009 9.77272 12.9963 9.87999C12.8992 10.6056 12.5418 11.2713 11.9907 11.7533C11.4395 12.2352 10.7321 12.5005 10 12.5C7.74566 12.5 5.58365 11.6045 3.98959 10.0104C2.39553 8.41633 1.5 6.25433 1.5 3.99999C1.49944 3.26786 1.7648 2.56045 2.24673 2.00932C2.72865 1.45818 3.39435 1.10084 4.12 1.00374C4.22727 0.990993 4.33578 1.01333 4.4293 1.06741C4.52281 1.12149 4.5963 1.2044 4.63875 1.30374L5.95938 4.25374C5.99182 4.3295 6.00504 4.41212 5.99784 4.49423C5.99064 4.57634 5.96326 4.65539 5.91813 4.72436L4.5825 6.31249C4.53512 6.38398 4.50711 6.46653 4.50119 6.55209C4.49528 6.63765 4.51166 6.72328 4.54875 6.80061C5.06563 7.85874 6.15938 8.93936 7.22063 9.45124C7.29836 9.48816 7.38439 9.50418 7.47021 9.49771C7.55603 9.49125 7.63868 9.46252 7.71 9.41436L9.27438 8.08374Z" stroke="#4C5250" stroke-width="1.5" stroke-linecap="round" stroke-linejoin="round"/>
</svg>
