<svg width="48" height="48" viewBox="0 0 48 48" fill="none" xmlns="http://www.w3.org/2000/svg">
<g clip-path="url(#clip0_4_1232)">
<path d="M12 40.5C11.6022 40.5 11.2206 40.342 10.9393 40.0607C10.658 39.7794 10.5 39.3978 10.5 39V30.9956C9.6998 31.3742 8.81687 31.5443 7.93329 31.4902C7.0497 31.436 6.19417 31.1592 5.44624 30.6857C4.69831 30.2121 4.08226 29.5572 3.65538 28.7816C3.22851 28.0061 3.00466 27.1352 3.00466 26.25C3.00466 25.3648 3.22851 24.4939 3.65538 23.7184C4.08226 22.9429 4.69831 22.2879 5.44624 21.8143C6.19417 21.3408 7.0497 21.064 7.93329 21.0098C8.81687 20.9557 9.6998 21.1258 10.5 21.5044V13.5C10.5 13.1022 10.658 12.7206 10.9393 12.4393C11.2206 12.158 11.6022 12 12 12H20.7544C20.3754 11.1998 20.2049 10.3167 20.2588 9.43295C20.3127 8.54917 20.5893 7.69338 21.0628 6.94519C21.5363 6.197 22.1913 5.58072 22.967 5.15367C23.7426 4.72662 24.6136 4.50269 25.4991 4.50269C26.3845 4.50269 27.2555 4.72662 28.0312 5.15367C28.8068 5.58072 29.4618 6.197 29.9353 6.94519C30.4088 7.69338 30.6854 8.54917 30.7393 9.43295C30.7932 10.3167 30.6228 11.1998 30.2438 12H39C39.3978 12 39.7794 12.158 40.0607 12.4393C40.342 12.7206 40.5 13.1022 40.5 13.5V21.5044C39.6998 21.1258 38.8169 20.9557 37.9333 21.0098C37.0497 21.064 36.1942 21.3408 35.4462 21.8143C34.6983 22.2879 34.0823 22.9429 33.6554 23.7184C33.2285 24.4939 33.0047 25.3648 33.0047 26.25C33.0047 27.1352 33.2285 28.0061 33.6554 28.7816C34.0823 29.5572 34.6983 30.2121 35.4462 30.6857C36.1942 31.1592 37.0497 31.436 37.9333 31.4902C38.8169 31.5443 39.6998 31.3742 40.5 30.9956V39C40.5 39.3978 40.342 39.7794 40.0607 40.0607C39.7794 40.342 39.3978 40.5 39 40.5H12Z" fill="white" stroke="white" stroke-width="2" stroke-linecap="round" stroke-linejoin="round"/>
</g>
<defs>
<clipPath id="clip0_4_1232">
<rect width="48" height="48" fill="white"/>
</clipPath>
</defs>
</svg>
