<svg width="46" height="34" viewBox="0 0 46 34" fill="none" xmlns="http://www.w3.org/2000/svg">
<path fill-rule="evenodd" clip-rule="evenodd" d="M31.0424 33.4835C30.8404 33.4835 30.6501 33.3691 30.5632 33.1824C30.4535 32.9473 30.5394 32.6694 30.7626 32.5317C36.833 28.8211 38.9152 23.1532 39.548 18.7365C38.2907 19.2727 36.9244 19.5533 35.5426 19.5533C30.0265 19.5533 25.5391 15.167 25.5391 9.77711C25.5391 4.38626 30.0264 2.37942e-09 35.5426 2.37942e-09C38.2943 -5.77436e-05 40.714 1.05096 42.5393 3.03858C44.2092 4.85631 45.3303 7.38199 45.782 10.3419C47.109 19.0484 42.4478 30.1098 31.1961 33.4612C31.1449 33.4764 31.0936 33.4835 31.0424 33.4835Z" fill="#E6EFEB"/>
<path fill-rule="evenodd" clip-rule="evenodd" d="M5.50336 33.4835C5.30133 33.4835 5.11105 33.3691 5.02418 33.1824C4.91448 32.9473 5.00038 32.6694 5.22353 32.5317C11.2939 28.8211 13.3761 23.1532 14.0089 18.7365C12.7516 19.2727 11.3853 19.5533 10.0035 19.5533C4.48742 19.5533 0 15.167 0 9.77711C5.90883e-05 4.38626 4.48736 2.37942e-09 10.0035 2.37942e-09C12.7552 -5.77436e-05 15.1749 1.05096 17.0002 3.03858C18.6701 4.85631 19.7912 7.38199 20.243 10.3419C21.5699 19.0484 16.9088 30.1098 5.65701 33.4612C5.60584 33.4764 5.55456 33.4835 5.50336 33.4835Z" fill="#E6EFEB"/>
</svg>
