<svg width="19" height="18" viewBox="0 0 19 18" fill="none" xmlns="http://www.w3.org/2000/svg">
<path d="M4.5 6.9375H1.75C1.3703 6.9375 1.0625 7.2453 1.0625 7.625V10.375C1.0625 10.7547 1.3703 11.0625 1.75 11.0625H4.5C4.8797 11.0625 5.1875 10.7547 5.1875 10.375V7.625C5.1875 7.2453 4.8797 6.9375 4.5 6.9375Z" stroke="#000905" stroke-width="1.5" stroke-linecap="round" stroke-linejoin="round"/>
<path d="M17.5625 1.4375H13.4375C13.0578 1.4375 12.75 1.7453 12.75 2.125V6.25C12.75 6.6297 13.0578 6.9375 13.4375 6.9375H17.5625C17.9422 6.9375 18.25 6.6297 18.25 6.25V2.125C18.25 1.7453 17.9422 1.4375 17.5625 1.4375Z" stroke="#000905" stroke-width="1.5" stroke-linecap="round" stroke-linejoin="round"/>
<path d="M17.5625 11.0625H13.4375C13.0578 11.0625 12.75 11.3703 12.75 11.75V15.875C12.75 16.2547 13.0578 16.5625 13.4375 16.5625H17.5625C17.9422 16.5625 18.25 16.2547 18.25 15.875V11.75C18.25 11.3703 17.9422 11.0625 17.5625 11.0625Z" stroke="#000905" stroke-width="1.5" stroke-linecap="round" stroke-linejoin="round"/>
<path d="M5.1875 9H9.3125" stroke="#000905" stroke-width="1.5" stroke-linecap="round" stroke-linejoin="round"/>
<path d="M12.75 13.8125H11.375C10.828 13.8125 10.3034 13.5952 9.91659 13.2084C9.5298 12.8216 9.3125 12.297 9.3125 11.75V6.25C9.3125 5.70299 9.5298 5.17839 9.91659 4.79159C10.3034 4.4048 10.828 4.1875 11.375 4.1875H12.75" stroke="#000905" stroke-width="1.5" stroke-linecap="round" stroke-linejoin="round"/>
</svg>
