<svg width="18" height="12" viewBox="0 0 18 12" fill="none" xmlns="http://www.w3.org/2000/svg">
<path d="M16.9051 1.815C16.816 1.45906 16.6345 1.13293 16.3791 0.869555C16.1236 0.60618 15.8031 0.414889 15.4501 0.315C14.1601 6.70552e-08 9.00006 0 9.00006 0C9.00006 0 3.84006 2.23517e-08 2.55006 0.345C2.197 0.444889 1.87655 0.63618 1.62107 0.899555C1.3656 1.16293 1.18415 1.48906 1.09506 1.845C0.858973 3.15417 0.743489 4.48223 0.750063 5.8125C0.741647 7.15278 0.857138 8.49098 1.09506 9.81C1.19328 10.1549 1.37879 10.4686 1.63367 10.7209C1.88855 10.9731 2.20418 11.1554 2.55006 11.25C3.84006 11.595 9.00006 11.595 9.00006 11.595C9.00006 11.595 14.1601 11.595 15.4501 11.25C15.8031 11.1501 16.1236 10.9588 16.3791 10.6954C16.6345 10.4321 16.816 10.1059 16.9051 9.75C17.1393 8.45069 17.2548 7.13275 17.2501 5.8125C17.2585 4.47222 17.143 3.13402 16.9051 1.815Z" fill="#05633B"/>
<path d="M7.3125 8.26499L11.625 5.81249L7.3125 3.35999V8.26499Z" fill="#F7F7F7"/>
</svg>
